/* XPM */
static char *a01b415d44f24bf38be81900fdde7c18t7GZd9htGujGCLxb[] = {
/* columns rows colors chars-per-pixel */
"64 64 253 2 ",
"   c #08070A",
".  c #140703",
"X  c #171209",
"o  c #080A13",
"O  c #120C15",
"+  c #081418",
"@  c #171719",
"#  c #2A170F",
"$  c #372409",
"%  c #181B23",
"&  c #060E23",
"*  c #1D2329",
"=  c #262A32",
"-  c #493418",
";  c #512D0C",
":  c #6B3206",
">  c #463727",
",  c #764B18",
"<  c #754E14",
"1  c #6B4C24",
"2  c #705823",
"3  c #363A48",
"4  c #2F3841",
"5  c #38464D",
"6  c #197374",
"7  c #286569",
"8  c #35676D",
"9  c #297679",
"0  c #38767A",
"q  c #326D75",
"w  c #255D61",
"e  c #4B565A",
"r  c #4C5057",
"t  c #555A66",
"y  c #4B5963",
"u  c #5A6774",
"i  c #47767B",
"p  c #506B74",
"a  c #636876",
"s  c #67737B",
"d  c #696776",
"f  c #8D5812",
"g  c #92691B",
"h  c #876124",
"j  c #24817E",
"k  c #17867F",
"l  c #297C84",
"z  c #387C84",
"x  c #477C85",
"c  c #547A85",
"v  c #517789",
"b  c #6B7886",
"n  c #767987",
"m  c #7D7E93",
"M  c #887B8E",
"N  c #2A8788",
"B  c #3C858B",
"V  c #368688",
"C  c #3A8D93",
"Z  c #3C9494",
"A  c #38969A",
"S  c #2C9292",
"D  c #3B9CA6",
"F  c #38A5A8",
"G  c #3DADB0",
"H  c #23A29A",
"J  c #4C848B",
"K  c #46878B",
"L  c #55858B",
"P  c #438C93",
"I  c #4B8C94",
"U  c #498997",
"Y  c #538C94",
"T  c #588A96",
"R  c #45949B",
"E  c #4B939A",
"W  c #499799",
"Q  c #549295",
"!  c #53949C",
"~  c #5C949B",
"^  c #58999B",
"/  c #42928F",
"(  c #77858B",
")  c #678C96",
"_  c #798895",
"`  c #63949D",
"'  c #67969C",
"]  c #76959C",
"[  c #61818F",
"{  c #4DA39E",
"}  c #4C9BA2",
"|  c #4898A4",
" . c #5395A2",
".. c #549BA3",
"X. c #5C9CA3",
"o. c #599AA7",
"O. c #509DB1",
"+. c #6595A3",
"@. c #639CA4",
"#. c #6C9BA4",
"$. c #649CAB",
"%. c #6B9DAA",
"&. c #6A94A4",
"*. c #759BA8",
"=. c #6999AB",
"-. c #49A5A9",
";. c #53A2A4",
":. c #54A4AB",
">. c #5CA3AC",
",. c #5BABAD",
"<. c #57A6A8",
"1. c #4BABB4",
"2. c #5CACB2",
"3. c #57A8B4",
"4. c #49B4B9",
"5. c #58B5B8",
"6. c #49B5AB",
"7. c #63A4AC",
"8. c #6CA3AC",
"9. c #64AAAD",
"0. c #6BAAAD",
"q. c #65A4A5",
"w. c #73A3AC",
"e. c #77A6AB",
"r. c #6DA5B2",
"t. c #63ABB3",
"y. c #6BABB4",
"u. c #64ADBA",
"i. c #6CADBA",
"p. c #65A5B2",
"a. c #74A4B3",
"s. c #7BA4B3",
"d. c #73ABB4",
"f. c #73ACBA",
"g. c #7BADBB",
"h. c #7AA9B6",
"j. c #64B2B5",
"k. c #6CB4BB",
"l. c #68B7BB",
"z. c #73B3BC",
"x. c #7BB3BD",
"c. c #73BABD",
"v. c #76B5B8",
"b. c #6CB2AC",
"n. c #6DC1BE",
"m. c #44C1B9",
"M. c #30BBC3",
"N. c #5BBAC4",
"B. c #4EBEC2",
"V. c #77AFC1",
"C. c #6CBBC3",
"Z. c #68BBC5",
"A. c #73B5C2",
"S. c #7CB4C2",
"D. c #73BBC3",
"F. c #7BBBC4",
"G. c #7BBCCA",
"H. c #73BCCB",
"J. c #6CB9CE",
"K. c #35D1D1",
"L. c #5AC6C8",
"P. c #51CCD0",
"I. c #6BC2CB",
"U. c #67C5C8",
"Y. c #7BC3CB",
"T. c #76C5C9",
"R. c #6ACBD4",
"E. c #7CCCD3",
"W. c #78C9D4",
"Q. c #6DD4D7",
"!. c #79D6DA",
"~. c #70D4CB",
"^. c #7AD9E2",
"/. c #65D8E2",
"(. c #72E8ED",
"). c #58F1EC",
"_. c #838B9B",
"`. c #858896",
"'. c #85949D",
"]. c #8A8EA2",
"[. c #8996A6",
"{. c #9399A9",
"}. c #969DB4",
"|. c #8F9EB2",
" X c #87A3AB",
".X c #85AAB7",
"XX c #98A7B8",
"oX c #83B3BC",
"OX c #87B6BC",
"+X c #95B3BC",
"@X c #96A3AC",
"#X c #A2A9BB",
"$X c #A7AEBC",
"%X c #83B4C4",
"&X c #83BBC4",
"*X c #8ABAC3",
"=X c #84BCCB",
"-X c #8CBCCB",
";X c #89B4C5",
":X c #96BAC8",
">X c #91B4CA",
",X c #A7B9C7",
"<X c #A6B2C7",
"1X c #9A9EC1",
"2X c #84C4CC",
"3X c #8BC3CC",
"4X c #86C7C9",
"5X c #92C3CC",
"6X c #98C7CB",
"7X c #84C5D3",
"8X c #8CC4D2",
"9X c #83CCD3",
"0X c #8CCBD4",
"qX c #89CCDB",
"wX c #93CBD4",
"eX c #9BCCDC",
"rX c #96C7D6",
"tX c #84D4DC",
"yX c #8BD4DB",
"uX c #85D5D9",
"iX c #93D3DC",
"pX c #97D5DB",
"aX c #A6C9D9",
"sX c #B7CAD9",
"dX c #A7D4DE",
"fX c #A6C3CC",
"gX c #8CE1DB",
"hX c #88D9E3",
"jX c #92DBE3",
"kX c #9CDBE3",
"lX c #98D8E6",
"zX c #91D1E5",
"xX c #A3DCEB",
"cX c #A9D9E5",
"vX c #B5D9E8",
"bX c #AAD5EB",
"nX c #88E3E7",
"mX c #96E2E9",
"MX c #86E6F2",
"NX c #98E9F4",
"BX c #94F8FC",
"VX c #A8E3EC",
"CX c #B5E4EC",
"ZX c #A8E6F5",
"AX c #B6E8F7",
"SX c #A9F4FC",
"DX c #B9F6FB",
"FX c #C4D6E4",
"GX c #C6F6FE",
"HX c #D6FCFE",
"JX c #CFE9F7",
"KX c #F0F9FF",
"LX c #C9D6DF",
/* pixels */
"s.8.dX:X3XS.d.C.i.Q 5XZX/.P.B.N.| C :.| :.u.E Y.-X3XF.lXf.J J 7.1.} q.4Xd.z I E ^ ;.R -.-.5.~.W.R.U.I.tXSX;.0 ~ D.p.c.&X*..X;X.X",
"h.' 5XcXvXeXi.A.I q oXGX^.).(.ZXR C C | :.t.Y.k.S.9Xj.l.2XT 7.uX2.I oXJ 0.B l C +XCX-X2XkX9Xt.T.U.N.!.nXhX2./ / ..7.Q Q L &.s.oX",
"` *.+.wXGXcX0Xz.z Q v.X.:.F L.Y.} V E R ..Y.0Xy.0X9XA :.=XT o.nXC.o.@.oXf.p.l A DXVXy.z.v.v.z.Y.U.R.Q.^.Q.R V ^ ! X.%.) 0  .d.y.",
";X~ %X6XwX-XVXuX8.~ ,.:. .J.D S uX2.B E o.yXxXDXmXjXl.E.G.U :.MX5.D.8.oX+.$. .z -.Z Z l.j.l.T.uXR.R.L.^.W.R R P ,.^ ) #.%.y.8XS.",
"OX%.CXdXg.r.kXjX8.K { C ! P A 6 ,.jXB P z i.xXdX0XF.7.o.>.:.I.hXE.2XwXa.a.+.$.! ..C >.Y.Y.T.U.U.5.!.E.R.T.R ..k.F.&.+...pXY.j.cX",
"%.*.%XiX:Xr.c.yX4Xq ^ ~ 9.S S V V k.k.E B z x.3X2Xr.T U u.mXjXhXCXcXCXvXa.$. . ...E 7XpX9.j.I.R.!.!.R.Z.jXt.P 2XrX ...5.Q.W.vXsX",
"0X+.$.ZXcXg.7.pXOX4Xd.#.y.-.-.C W ,.DXD.D.9.7.F.7XF.z.7X2XyX2X2XvX:XaXGX%Xo.g.CXj.;.D.pXj.,.U.R.nXN.!.mXjXk.z 7.T.G 4.N.(.ZXKXJX",
"q.D.7.VX0XJ i K L ' i L Q c.j.N z P >.,.D.9XF.kXVXuXnXyXz.~ a.a.;X;X*X;X%X-X:XvXrX%.d.DX4Xn.Q.Q.5.L.!.hXtX9XI I K U N.MXJ.2.gXb.",
"X.} pXsXc ' ) p q x Y L K -.F x 9 P ! :.T.2.7.cXqXmXSX&X+.&.eX;X*.[ i ) ;XrXrX=XpXx.i.H.^.!.^.^.L.R.R.tXmXE.! L z.A (.BXE.,.5.:.",
"Y.r.5Xh.) w.) i L #.T Y / V } P N V ! iXyXj.Q VXkX9X4X` s.;X-X.X*.c ) [ *.aXrX=X5XI.-.2.R.!.^.(.MXE.G.E.yX0.x @.Y.t.G.:.k.JXHXlX",
"SXaX-XX.L i 8.d.i ' ) 0 C 2XAXZ S Z B p.iXY.>.DXGX4XY L .X+.&..X>Xc *.` s.aXrXeX.Xl.,.t.6.5.W.Q.C z 7.9XuX! 0 X.,.o.=X! z >XJXhX",
"DXAXwX0 i L x K i J 2X:.5.kX&XZ R ,.l.l.T.<.! 8.aXoXi *.*.L ~ OX&.T &.s..X.Xg.cXF.3X9Xj.R N F N 6 N U.Y.>.;.j.7.W 8.2Xt.q.8.l.9X",
"h.NXA.x J x x 8.Y K -.N.| l V Z B R C uXE.D.! x ) L c p T L ;X;Xv #.s.:Xs.&.` cXd.&Xc.! T l S 6 V { <.9.Q l.9XQ L e.&X0X~ y.4X*.",
"*.C.DXHX` z I y.o.C F 4.| :.D >.y.D.2.:.T.l.wX%.&.` c ) &.=XAXaX%.a.=.&.*.eX%Xx.s.x 9 6 S m.G 9 6 7 q E I &.w.0 I d.OXpXE -XaX[.",
";X8XF.z.I 0 P | | 3.A A 3.N.:.u.G.2.B 9.E  .wXiXT J x oXeXzXxXrXzX=Xf.g.g.a.%.pXA.9 R 4.K.).K.9 ! Q ^ q.Q &.h.q.l ^ *X4XR %X.XdX",
"dXcX@./ F.d.:.5.J.Z.R ..5.2.p.H.C.k.I 8.+.~ r.k.0 q +.s.zXlXV.h.=XqXp.o.%X8.@.wX .8 v.:.D M.K.Y.CXQ Q e.e.0.b.0.N w.c T g.f.8XwX",
"a.%XK z R.(.Q.lX7.J x L $.zXu.5.W.>.z.t.Z.:.P 8.i 0 p.E.H.-XaX*.s.rX;X~ %.d.8.%.X.J 0 U C | 4.L.-.V 0 o.R C j N x w.w c ~ >.A.h.",
";Xs.x  .N./.R.! x J Q K 7.G.k.t.2.o.p.D.t.P kXx.P f.ZXH.H.8XGX*XS.xXrX%XT %.CX-X%X~ P z j.Y.N 1.nXd.8.l.V K x.9.n.~ 8 ` Y oXAX;X",
"#.L ~ :.4.N.U 8.5Xx.0.0Xk...A.2Xi.7.7.y.r.o.A.W.R i.qXk.A.3Xe.wXpX3X.X-Xs.a.VXxXxX&XX.i.u.W R :.{ j.z.W V 2X0X:.,.0.T Y ' e.&.oX",
"c &.d.-.R.2.S.cX5X&X9.4Xy.r.S.y.D.D.@.` f.A.:.R.G.x -X&XY .XOXOX:XXX:X+XaXcXAXVXk.kXrX>.W S R y.8.2XE.1.A nXA.eX4X4Xz.d.~ y.yXS.",
"L T X.U.5.t.%X' x.&Xx.oX:XdXwXyXD.~ &.f.Y.I.I.tX#. X,XfX+X<X|.XX@XXX#X$XXX:XaXaX^ wXHXt.6 k V ! P V 5.U.4.MX1.| :.l.,.0XiXD.0XS.",
"r.Q u.N.C >.~ ~ y.y.r.vXFXfX3XY.x.*X~ t.U.U.VX:X,X`.'.`.( a a u e y e n n {.{.[.] s.6X..W ;.W V H A l l 1.nXL.H A N :.mXlX%X;X$.",
"=.u.!.| } E z.8.&Xz.I pXdX:XkXu.wX3XY Q z.5X+X{.( t e t e d t s u a y 3 e {.n a `.[..X*.` d.j.j Z 9X9X1.| tXhXF F 5.2.G.ZXvX.XT ",
"8XH.J.O. .E 2X%.%Xf.u.7.%X*XxXD.7.X.~ *.sXsX@Xe y u a y e 5 5 5 3 4 t t ( ( s _ @X{._ #XL L uXW P l.5.U.E.!.U.Q.mXW.E.r.bXDXX.a.",
"qXG.qX>. .a.;XS.a.rXkX7X&X-X8Xz.u.y.e.fXFX,X|.b s u e 3 = @ * @ % * * = = 5 _ @X{.XX{.[.( ' ;.N F 5.C Y.mXT.C.ZXNXl.tXrXxXDXi.$.",
"a.=XlX=XeXh.=X%X.X3X&X7.X.Q 0X8Xy.w.fXsX,X<X<X_.u 5 @ @ O   O O X X X @ * % = u {.[.{.{.[.*.0.T.;.U.6.yX9XuXI.tX9X9XmX=Xg.ZX8X+.",
"bX8XV.-XeX=X3Xw.%Xw.` 8.&Xp.z.=Xg..XFXsXXXXX}.a 4 @ X .   X X # $ - - X @ @ + = a _.|.]._.[.*.8XeXT.Q.l.C.I.^.hXjXNXzXS.-Xx.@.%.",
"a.G.A.V.%.8XwX~ e.*.c ` @.z.wXCX XsXFXXX#X{.a = * = > # . - 1 2 < < 1 ; X X o + * b [.]._.[.[.h.HXyXn.N.Z.R.!.W.hXmXxX%X-Xg.x.f.",
":.>.Y.H.7XbXCX8X' ) b aXx.q.&XT  XFX,X|.XX_ 3 + . $ 1 - $ 1 h g h < , 1 $         r n [.'.'.*..X:XiXt.hXR.R.Q.hXtXqXZXxXeXV.p.i.",
"-.| E.J.H.eXvXeX*.c p *X3X@.d.T ,XFX1XXXXXu * + . $ 2 2 < , : , < < < , 1 $ .     * s [._.'.] .Xh.wXyXhXnX^.Q.hXhXxXDXxXi.F.t.A ",
"1.A 3.yXS..X.Xs.) ' ' J ` %.@.F.FXsX}.}.@Xy + o o X - 1 < < : ; : : : : 1 > .     @ u ]._.[.'.XX%XF.jX0XlXNXhXNXmXAXxXF.X.z.k.5.",
"9X~.2.=X%Xs.e.[.OX6X@.0 J d.8.F.FX,X1X}.XXe + o & o X ; , h < : : : : : ; - .     * t ]._._.].@XbXi.R ..wXlXSXNXjXwXcXwX7.I t.5.",
"5.!.-.p.;Xs.` ) .XrXT a.A.l.yXzXFX,X@XXX|.u % O O O o # - h g g f f f : # . o o   = a {.m `.`.{.#.c ) F.mXlXkXp.X.oXvX:Xz.-.S A ",
"6.-.-.;.&.8.z.oX7.2XqXlXtXW.jXY.sX,XXXXXXXb 4 % % % @ # - 1 , < f , , ; # .   o o 3 m [._._ _.{.x i #.VX9XY.qX .a.T ~ 8.S.S.l.A ",
"2.:.W 0.s.x.z.-XtXtXNXmXT.hXjX>.fX,X+XXX<X[.y * @ @ % # $ ; ; $ ; ; ; X . O O o * a _._._._ _ _ J J 8.rXo.T.jXY.r.f.7.kXdXeXA.5.",
"A.Y.;.9.%.k.E.7XSXjXE.2X8X8XX.q.:XfX+XXX1XXX( r @ @ @ # # # X . . . . .   O @ % t _ _ `.`.`._ ) x.4XiX-X .hXI.t.U qXzXr.d.S.z.P ",
"2.yXE.T.T.A P.BXqXA.Y.z.0X8Xy.9.OX,X<X<X<X<X}.n 5 * @ O X # X O O o         = r M _._ '.`.m *.v.kXiXiXxXqXW.D R O.3.k.7.d.X.i.u.",
"<.k.H.2.>.N.(.^.J.7X4X! p.jXl.;.oX:X$XXX}.XX#XXX`.t = @   O O o       o % 3 d `.`._._ ( ( ( OXT.E.Y.j.i.D.^.^.| ..2.:.c.*XL I j.",
"r.-X=X8X=XtXW.7XI.i.3Xd.E hXE.c.#.e.$X,X<XXX|.|.XX_.b u r 5 = = 4 3 r e a `.].`.`.`.`.b ( ] 9XW.I.;.B / | Z.BX1. .D.iX8XDXa.I ..",
"GXGXeXAXxXW.I.u.5.v.HXvXi.E.z.*X0.e.@XXXXXXXXXXX@X|.@X'.( ( b n b s n `._.].]._._ `.M `.] b.E.hXN.9 9 Z S | mXU.W y.:XL f.F.=XbX",
"zX7XZXAXeXrXmX4.-.z.:XvXCX0.c.z.) *.`  X:X#X{.@X{. X X_ `._._._ M n s s s b `.`.`.M ] v.e.c.E.!.1.l B N N -.P.1.&X&XX.$.$.S.-XlX",
"-X+.G.ZX;X7.SXR.! X.Q Y pXQ x.v.~ e.0.OX.X+X,X{.}.@X'.`.t a `.s b b b n n m `.{.@X$X:Xc.pX0XY.T.T...Y Z A 1.P.D A.lXz.xXVXcXwX-X",
"dXh.f.rXr.I nXL.T ^ V V c.9.Y oX^ v.W k.4XOX.X+X#X[.[.`.`.{.`.{.]._ ].m `._.] +XeXdXY.T.yX!.5.7.>.0X@.:.D B.P.4.O.qXlXZXAXpX*X5X",
"cXh.g.eXf.! E.L.L ^ C 6 j.wX~ ) q.Y.j.c.c.v.x.3X*Xg.*XXX@X X|.].{.|.]._ [.' w.2X8XtX^.hXU.~.0X4Xl.uXjXN.4.R.4.3.A.iXxXwXw.cXrXeX",
"r.i.7XlX .! t.6 K W B z E ;.0 8 i x I 9.9XpXyXY.U.Q.mX2X+.*..X[.] *.#.` Y X.! 9XqXY.jX!.~.AXKXgX!.^.N.-.^.Q.:.E 2X8.a.rXa.;XeX;X",
"S.G.V.8XI 0 P 9 6 9 E z ..Q 0 7 8 8 K I X.D.tXtXR.U.Z.3.P u...$.! ! t.P E >.C.SXSXNXSXmX!.DXHXnX(.^.U.:.-.1.! Q L #.a..XcX:XrX=X",
"x.eXrX8X@.I V z A 6 6 V b.0.q 7 7 x q.! K i.tX5.kXqX .V.u.N.D | 9X0Xt...u.O.^.MXBXNXtXjXtX!.Y.l.R.hXT.,.1.1.f.7.v.r.g..X*.;Xe.&.",
"` %.5X.XJ K 0 ^ O.-.S j b.) #.x.b.9Xt.,.Y.jXjXtXF.SXG.=XZX9XB -XVX8X$.$.i.^.P./.m.G.eX0XY.5.3.t.2.Y.mXkX-.U.p.Z.o.A.&X+.) h.) #.",
"~ [ L 8.J 9 6 P <.U.4.F C 7 ~ c.y.pXW ! p. .o.T.Y.G.VXmXNXyXy.p.jX3.-.5.Q.hX3.V.>.l.&Xn.4XcXT.F.U.2X2X0XA.3.o.2.E  .d.) .Xs.&.d.",
"oXb p s.v.B q z j.-.F L.l.q 4XP 0 I K P | A -.nXDXxXT.nXY.S.2XC.7Xu.u.I.E.3.u.D.z.l.oX3XwX3XnX9X9X3X9XjXhX!.F.r.F.%.' ) ) [ *.*.",
".Xx.w.#.^ ! ..T.R | D -.l.y.D.V B A.VX:.1.5.R.Z.AXVXyXt.9X8X7.2.kXi.t.T.>.U  .F.cX4Xx.t.Y.mXY.F.Y.2XyXkXjXuXiXy.x.&.p p i L #.` ",
"a.u.;.Y ^ c.U.A C R V / q 7 7 9 -.!.U.1.N.5.| p.0XlXxX>.C.ZXVX9.W C.u.i.A.! ! X.fX*XY.n.U.T.v.xXnXuX9XpXwX:.9.X.P I T ` ' ^ @.@.",
"! ^ K 8 c 9 5.3.E I ~ i 8 Y ! ^ 5.!.(.BXMX3. .o.D.wXpXD.V ..i.k.5.2.2.k.S.r.%.J i J c.c.>...! ,.Z.E.5.7.7.9 ^ v.t.7.w.8.0.0.k.! ",
"W ! c.f.z.A F j.>.0 i L ' y.9.c.l.Q.L.BXMXhXO...F.lXD.9X;.Y ! 2.W.2.2.D.G.rX%.v i Q { <./ / K W 5.<.-.f.@.C T.C.D.G.v.v.e.^ c.u.",
"pX/ 5.~.1./.R.2...0 i oXy...D.c.D.I.Q.MXQ.hXhXt.! F.iX,.F.cX3XyXk.p.F.f.v.&XcX%.T CXE.VX4XiXcXkX4XgX~.3XxX4.1.MXNXtX,.q.Y 0 P -.",
"KX4X6.5.1.U.9XY.^ 0 x %. .| :...;.:.| 4.G N.jXlXt.U pXy.P 0XVX@.w.T ~ K K J q.~ Q 8.b.CXJXGXCXuXKXDX6.V !.(.P.MXMXnXnXl.z X.5.H ",
"P.P.K.K.K.4.pX6XP K J @.8.! >.z y.X.| F D :.F.0X0Xy.wX5XoXx.;.9 T y.Y ' ) q 8 x Y K V V { ;.l.NXCX~.D.N (.nXVXwXz...^ ` c x.2.A ",
"kXt.4.P.).P.~.4Xt.k.9.W Y.Y.E z Y @.E 1.-.| =X$.+.f.9Xj.Y.z.0 v Y z.z x L 8 x T v J Q q K Q z ..-.q.vXP.J.cXE.hX9XwXI c q.8.Z l.",
"JXX.T.jXZXzXtXZ.&XwXf./ l.D.Q @.oXd.E -.2.S.T K 7.>.D.D.$.d.T v B x U U x 0 z 7...V W V V V 9 Z | ;.DXP.r.CX~.>.T.wX! ) q.5Xl.G.",
"j.T...&XjXhXNXDX-Xa.q q.7.8.J ' w.! ;.R y.a.U ..,.2XAXHX.XoX*X@.i T E 3.u.o.8X>.Y.2.:.T.j.C V V N B.lXZ ^ !.Q.aXx.^ Y 5XoXCXS.E ",
"2XqX3XGXiXyXl.qXyXK Y &XF.K 0 ^ Y 0 2.P U X.>.Y.CXdX3XdX.X.X.X#.8 *.H.1.MXW.A.C.tXW.| I.R.U.I.Z.6./.Z.w oXmX7X<.8.0.8.3X+.w.T d.",
"aX8XwX.XJXaX8.mXA.k.xX3X$.2X^ 0.F.P -.:...u.,.Y.CX*Xw.h.h.L i L ] h.Z.5.5.l...u.!.!.1.A Q.U.Q.!.5.~.uXz ,.~.kXa.^ *Xf.cX! h.y.:X",
"8XrXr.2XwXeXeXcXlXlXDXY.E  .8.DX7X2.R C.9X} 2.F.3Xe.&.e.oXi w #.s.p.tXmXB ! k.C ;.D.F...E.:.2.T.HXn.L.l.K Z @.+.0.cXy.:XE.wXf.vX",
"z.rX-X3X=X:XS.A.tXI.W.^.R.A F.CXhX2.R D.>.-.:.8X4Xx.d.eXoXi x OXX.2.l.x.6XJ >.R V c.z.D.} -.2.mXKXL.R.mX4XC U b.OXwX2Xi.iXx.@.h."
};
