/* XPM */
static char *_fb3a8b5b65c4caabf4358a5bb9183478fvYeNGAsQWGpg3T[] = {
/* columns rows colors chars-per-pixel */
"64 64 256 2 ",
"   c #020102",
".  c #0A0102",
"X  c #020A03",
"o  c #03030A",
"O  c #0B020B",
"+  c #030A0A",
"@  c #0A0A0A",
"#  c #0A0B03",
"$  c #110004",
"%  c #040612",
"&  c #121210",
"*  c #252623",
"=  c #3C3C3C",
"-  c #2A595B",
";  c #2C5D63",
":  c #1A7978",
">  c #156C6E",
",  c #29696B",
"<  c #36686E",
"1  c #3A6C75",
"2  c #2A7579",
"3  c #3A747B",
"4  c #36777A",
"5  c #266E73",
"6  c #1C5D5F",
"7  c #474746",
"8  c #575858",
"9  c #456D76",
"0  c #46777C",
"q  c #53717E",
"w  c #6A6A6A",
"e  c #2B807E",
"r  c #1D877B",
"t  c #297B83",
"y  c #3B7C84",
"u  c #367C84",
"i  c #477C85",
"p  c #567B86",
"a  c #517789",
"s  c #2A8587",
"d  c #35848A",
"f  c #3C858C",
"g  c #378788",
"h  c #33908E",
"j  c #3C8C94",
"k  c #3A8B94",
"l  c #2B9593",
"z  c #3C9494",
"x  c #38969A",
"c  c #288A92",
"v  c #36A29C",
"b  c #3A9CA5",
"n  c #38A5A8",
"m  c #3DADB0",
"M  c #43848B",
"N  c #4C848C",
"B  c #448C8D",
"V  c #488688",
"C  c #56848B",
"Z  c #57918C",
"A  c #438D93",
"S  c #4B8C93",
"D  c #498997",
"F  c #548C94",
"G  c #5B8D94",
"H  c #578997",
"J  c #459396",
"K  c #4C9395",
"L  c #45949B",
"P  c #4B929B",
"I  c #489B9C",
"U  c #549295",
"Y  c #53949C",
"T  c #5B949B",
"R  c #549A9C",
"E  c #5A9899",
"W  c #42928F",
"Q  c #61818F",
"!  c #678C97",
"~  c #63949D",
"^  c #66989C",
"/  c #71979E",
"(  c #51A19F",
")  c #42A89D",
"_  c #4B94A1",
"`  c #4B9BA3",
"'  c #4598A5",
"]  c #5495A1",
"[  c #5996A2",
"{  c #549BA3",
"}  c #5C9BA3",
"|  c #589CAA",
" . c #569AAD",
".. c #6495A3",
"X. c #639BA4",
"o. c #6C9BA4",
"O. c #6B9DAA",
"+. c #6798A8",
"@. c #739DAC",
"#. c #7698A5",
"$. c #699EB2",
"%. c #6F92A6",
"&. c #4DA3AC",
"*. c #48A6A7",
"=. c #54A2A4",
"-. c #55A3AB",
";. c #5CA3AC",
":. c #52AAAC",
">. c #5BABAC",
",. c #5AA4A5",
"<. c #49AAB3",
"1. c #5BA4B2",
"2. c #54ADB4",
"3. c #5CABB3",
"4. c #57A9B6",
"5. c #49B6BA",
"6. c #58B5B8",
"7. c #49B5AB",
"8. c #63A4AC",
"9. c #6BA4AD",
"0. c #63AAAC",
"q. c #6BABAC",
"w. c #65A5A5",
"e. c #74A5AB",
"r. c #69B1AB",
"t. c #65A4B2",
"y. c #6CA4B3",
"u. c #63ABB3",
"i. c #6CABB3",
"p. c #6CADBA",
"a. c #66AABA",
"s. c #74A4B3",
"d. c #7BA4B3",
"f. c #73ABB4",
"g. c #7BABB4",
"h. c #74ABB9",
"j. c #7BACBB",
"k. c #79A5BD",
"l. c #64B2B5",
"z. c #6CB3B4",
"x. c #6CB3BB",
"c. c #64B9BD",
"v. c #68B6BB",
"b. c #74B3B5",
"n. c #74B3BB",
"m. c #7BB4BD",
"M. c #73BABD",
"N. c #79B6B8",
"B. c #70C1BC",
"V. c #47C2BF",
"C. c #30BBC3",
"Z. c #5BBBC5",
"A. c #56B6C3",
"S. c #7BAEC2",
"D. c #6CBAC3",
"F. c #68B9C5",
"G. c #73B5C2",
"H. c #73BBC3",
"J. c #7BBBC4",
"K. c #7BBDCA",
"L. c #7AB6C4",
"P. c #70B6CD",
"I. c #35D1D1",
"U. c #5AC5C7",
"Y. c #52CED1",
"T. c #6BC3CB",
"R. c #67C6C8",
"E. c #73C2C5",
"W. c #7BC3CA",
"Q. c #78C6CA",
"!. c #67CBD3",
"~. c #7BCCD2",
"^. c #78CAD5",
"/. c #6DD5D7",
"(. c #7CD6DC",
"). c #7AD9DD",
"_. c #75D4D9",
"`. c #6ED4CB",
"'. c #79DAE2",
"]. c #68DAE2",
"[. c #66E4EA",
"{. c #77E4E8",
"}. c #75F5F7",
"|. c #58F1EC",
" X c gray59",
".X c #8A8A8B",
"XX c #85A9B8",
"oX c #83B4BC",
"OX c #85B6BC",
"+X c #94B3BE",
"@X c #B8B9B8",
"#X c #809BAC",
"$X c #C1BBBB",
"%X c #86C1BF",
"&X c #83BBC3",
"*X c #8BBCCB",
"=X c #87B7C6",
"-X c #94BACB",
";X c #8AB7CE",
":X c #85C3C5",
">X c #84C3CC",
",X c #8BC3CC",
"<X c #84CBCC",
"1X c #8BC6C9",
"2X c #92C2CC",
"3X c #97C6C7",
"4X c #83C5D3",
"5X c #8CC4D2",
"6X c #83CCD2",
"7X c #8CCBD4",
"8X c #89CBDA",
"9X c #93C4D4",
"0X c #94CBD5",
"qX c #99C8D8",
"wX c #83D2D6",
"eX c #8BD4DB",
"rX c #85D6DB",
"tX c #93D3DC",
"yX c #98D5DB",
"uX c #A6C9DA",
"iX c #A5D5DD",
"pX c #B7CDD6",
"aX c #89E4DD",
"sX c #98CCE3",
"dX c #89D9E4",
"fX c #9CD3E2",
"gX c #9BDBE3",
"hX c #95D8E7",
"jX c #8BD3E6",
"kX c #A6D9E6",
"lX c #B6D9E9",
"zX c #AAD2E9",
"xX c #88E3E7",
"cX c #95E3E7",
"vX c #87E6F3",
"bX c #98E7F3",
"nX c #8FF7F9",
"mX c #A8E3EB",
"MX c #B5E4EC",
"NX c #A7E7F4",
"BX c #B7E9F6",
"VX c #AAF8FD",
"CX c #BAF6FA",
"ZX c #C8C8C8",
"AX c #D7D7D7",
"SX c #D4D3CE",
"DX c #C7F7FE",
"FX c #D7FAFF",
"GX c #D0EAF8",
"HX c #E7E7E8",
"JX c #F5F5F5",
"KX c #F6FEFE",
"LX c #FDFDFD",
"PX c #FBF8F8",
"IX c #EEF0F4",
"UX c #DFE0DF",
/* pixels */
"d.9.iX-X,XL.f.D.p.U 2XNX].Y.A.Z.` j -.' 1.l.P W.*X,XJ.gXh.N N 8.2.` w.:Xf.y K P E =.I *.*.2.Q.^.!.R.T.rXVX=.4 U L.t.M.&X@.XX=XXX",
"g.! 2XkXlXqXp.L.S 2 oXDX'.[.[.NXJ z j ` -.u.W.x.L.4Xl.v.,XH 8.wX3.S oXN q.f t k +XMX*X,XgX<Xu.E.R.Z.).xXdX3.B B ] 0.K U C %.d.oX",
"~ @...0XDXkX7Xn.y U b.} &.n U.W.` g P J { W.7Xi.7XwXx -.*XH | xXD.| X.oXh.t.t x CXmXi.n.b.b.n.W.!.!._.{._.I g R Y } O.! 3 [ f.i.",
"=XT =X9X0X*XmXwX9.T >.:._ P.b c wXu.f P | eXkXCXcXdXc.~.K.D -.vX6.H.9.oX..+._ u *.z z c.l.z.E.).!.!.U.'.^.J L J >.R ! #.O.i.5XL.",
"+XO.MXiXj.y.gXdX9.V ( h Y A x : >.dXf B y b.kXiX7XJ.8.| ;.-.T.dXQ.>X0Xd.s.+.$.Y ] j ;.W.W.Q.R.R.6.)._.^.T.L | x.J.%...[ yXW.l.zX",
"O.@.=XyX-Xy.M.eX:X5 R T q.h l d g x.x.P f y m.,X>Xy.H D l.cXdXjXMXkXMXlXs.+.[ [ { P 4XtX0.l.R.!.).).^.D.dXu.M >X9X[ { 6./.^.lXpX",
"7X..X.NXkXj.8.yXOX:Xf.o.i.*.*.j J >.CXH.H.0.8.J.4XJ.n.4X>XeX,X,XlX-XuXDXS.[ j.mXl.=.H.tXz.>.R.!.xXZ.).cXhXx.y 8.E.m 5.Z.{.NXIXUX",
"w.H.8.mX7XN 0 M C ^ 0 C U M.l.s u B ;.>.H.6XJ.gXmXwXcXrXn.T s.s.=X=X*X=XS.*X-XlXqXO.f.CX<XB._./.6.Z.).dXwX4XS B f P Z.}.P.3.aXr.",
"} ` yXpXC / ! 9 1 i F C M *.n i 2 A Y -.Q.3.8.kX8XcXNX&X..+.qX=X#.Q q ! =XqXqX*XyXm.p.K.'.).'.'.U.Y.!.rXcX~.Y C b.x {.nX~.:.6.-.",
"W.y.2Xg.! e.~ 0 C o.G F J d ` A s g Y tXeXl.U mXfX<X:X~ d.=X*XXX#.p ! Q #.qX9X*X2XE.&.3.!.(.'.}.vX~.K.~.eXi.i X.W.a.K.-.x.GXFXhX",
"VXuX*X} C 9 9.f.0 ~ ! 4 h >XBXz h z f t.tXW.,.CXDX:XF C XX..+.XX-Xp #.! d.iX9XqXXXv.>.u.<.6.^./.h u 8.6XwXU 3 } >.| =X] y -XGXhX",
"CXBX9X3 0 C i V 0 i >X:.6.gX&Xz L >.v.v.E.;.Y 9.uXoX9 #.#.C T +X%.C %.d.XXXXj.kXJ.5X<Xl.L s n c > h E.W.,.=.z.8.K 9.>Xu.w.9.x.6X",
"h.bXL.i N 0 i 9.F M &.A.' t d z f J k rX~.H.Y i Q C p q C H =X=Xp %.d.-Xd...~ kXg.&XM.Y H u c > h I :.0.K z.<XU C s.:X7XT i.>X@.",
"@.D.CXFX^ y S i.| k n 5.' &.n ;.i.H.3.:.E.v.0XO.! ~ p ! %.*XBXuXO.s.+.+.@.qX=Xm.d.i 2 5 c C.m 2 > 5 2 K S o.e.3 S f.OXyXK *XuX#X",
"=X5XJ.b.S 3 M ' ` 2.x b 4.6.&.a.K.1.f 0.P [ 0XtXG N i oXsXhXkX9XsX;Xh.j.j.s.O.yXn.5 J 5.I.|.I.2 Y U E w.U o.g.w.s R *X:XL =XXXiX",
"iXzXX.J J.f.-.2.P.F.L { 6.3.t.H.D.x.S 9.+.H t.x.y 4 ~ d.fXhXG.k.;X8X$.[ =X$.+.0X[ 1 n.-.b C.I.W.MXU K e.e.9.r.q.s e.p G j.h.5X0X",
"d.&XM u /.[./.hXt.N 0 C +.hXa.6.W.;.D.4.P.1.f 0.V 3 t.8XP.;XsX@.k.qX=X~ O.h.9.O.X.i u a j _ 2.T.v f y ;.z k s : a 9.; p ..;.G.XX",
"&Xg.i Y 6.].!.P i V Z V 8.K.v.>.>.( l.H.0.S gXb.M b.NXE.H.0XCX:X&XyX2XOXG ^ MX:XoXT B A 0.W.r *.cXg.o.6.l S g.u.B.E - Z V b.CXXX",
"~ C ! ;.2.Z.f f.*XN.b.<Xv.| L.<Xp.t.t.p.y.$.G.8X .$.sXG.G.*Xj.5XfX;XS.qX@.k.lXmXmXL.T x.t.=.I 2.) q.oX=.s >X0X,.u.9.~ H O.g.%.XX",
"H %.k.' ].A.=XzXqX&X8.7Xt.y.L.p.L.&XX.T b.D.` T.D.D J.>Xf i.y.l.v.i.5Xj.qXlXBXkXv.kXuX| _ l j a.8.W.~.:.*.dXb.yXW.E.M.e.G q.0X*X",
"f H T R.5.u.OX^ N.&Xg.OXqXiXiX7XK.F } J.K.D._._.-.[ J.eX] } K.j g ;.tXkXBXfXBXNXI eXFX0.2 r g S P k 6.U.5.vX6.` ;.F.u.7XtXH.^.F.",
"#.% O     o .       o   .                 @       .         O o   X   .         . o . o o   @     . .             . .       + / ",
"o.o .     .   X           X X   o     @     .     . .     O . o     .   .       .         .     . O o + o o O o   . .     $ o C ",
"9X% o       @   . . o o       . .   .   o o X     . o o                     X   o o   .   . o o   X   . .           o @     + d.",
"8X        .             @                 .                                             .           @     .   .   .     o     +.",
"y.  .       .       LXLXLXLX8     LXLXLXLXJXLXLXLXAX      . .     .                                   @     .     .     +   . ..",
"mX. .     o       LXLXLXJX7       LXLXLX  LXLXLXLXAX  . @XLXLX  . JXLXLX  . @ JX  . JX. @ LX      LX      LXLX@   .XUX  o * LX9.",
"y.  O         + LXLXLXLXw         LXLX  . LXLXLXLXAX@ LXJX  LX. JXSX  LXLX  LXLX    LX    LX@   JXLX  LXLX  w LX  LXLX  o LX.Xn.",
"1.+           LXLXLXLX8           LX    . JXLXLXLXAX* LX  .   LX X    . JX  JXLX@ LXLX    LXLX  LXLX  LX      LX.XLX* LX@ LX  v.",
"&.  .     + PXLXLXLX7     .     .         LXLXLXLXSXLX@     . PX        LX  LXLX  LXLX  LX  LXLX  JX.XLX      LXX LX  LXo LX  A ",
"2.X .     LXLXLXLX7         @     .     LXLXLXLXHX  LXZX@     LX.     LXLXLX@ LXLX  LX  LX@ JXLX  LX= LX  .   LX  PX    LXPX  c.",
"(.X . . LXKXPXLX8 .                   LXLXLXLXJX      LXLXLX  IXLXLXLXLX  LX    PX  LX. LX  LX    LX  LXLXLXLX.   LX    LXLX  6.",
"6.    LXLXLXKX8                     LXLXLXLXHX           X         X                                    7 =       o     o 7   z ",
":.  PXLXLXPX8         .   .       LXLXLXLXHX  .       .   . .         .                         .       .         +     o     x ",
"2.  LXLXLXLXLXLXLXLXLXLXLXLXLX  . LXLXLXLX        SX          .     @                                 @   .   .   o     o   @ :.",
"D.  PXLXLXLXKXLXLXLXLXLXLXLXLX.   LXLXLXLX  .   JXSX@   . @       = JX  .   w AX                .                 o     o     z ",
"u.  LXLXLXLXKXLXLXLXLXLXLXLXLX    LXLXLXLX    LXLXAX            LXLXIX    LXLXJXLX. IXJXLXLX  LXJXLX          .         o     u.",
";.. @XZX@X$XpX$XZXZXJXLXLXJXLX    LXLXLXLX. LXLXLXSX        . LX*     . LX    . LX@XLX@   JX  LX.             o     .   o X . x.",
"i..   o   . o       AXLXLXLXLX      @   @ .   @   .           LX    .   LX.     LX@XLXLXLX. . LXLXHX        .     @     @   . Y ",
"DX.   o     o @     AXLXLXLXLX    .         .                 LX.     . LX      LX@ LXLXLX  LX@X              .         o   O mX",
"uXo $ .   o   . o o AXKXKXLXLX. . o o o o       .     $       KXLX  LXo LXHX  LXKX  LX  LX. PXX     .   .   X   X   .     O % zX",
"%X+   X X   &       SXLXPXPXLX                  .   o . O o . O LXLX      LXPXX   $ HX  IXIXJXHXIX+   o o O o .   .       #   :X",
"pXo o     o o       +   . $   +       @     @   .         X     .   O   o o o o     +                     @   . o O O o     + 3X",
"kXg.j.yXm.} wXR.Z R g : l.yXU Z q.M.z.z.r.z.B.E.4XF.dXdX(.dXbX4XBX0Xb.R S Y n.<X9XrX).dXc.~.0XW.D.^.xXZ.<.!.5.:.i.kXkX5Xe.pX9XfX",
"k.h.4XfX[ P 4.: M P f t L { i 9 i i N } tXgX6X6XR._.nX(._ v.K.j.Y a.;.j _ 1._ ^.6XE.cX_.!.BXKXaX(.jXF.&._.'.=.K 7Xy.y.9Xs.-XuX;X",
"n.G.G.5XC 4 A 2 : 2 K f } B 0 ; - 1 F S } n.6X~.Q.F.6.-.P 1.{ $.S [ ;.{ P 1.F.VXVXbXVXbX'.BXFXxX}.'.Z.2.n *.Y U N ..d.g.uX9X9X=X",
"m.7X8X9XX.V e i l r : 4 q.q., , , M R K A x.wXc.hXhXL D.a.T.b A &XyXi.Y a.3.^.vXnXcXrX>XwXaX:XB.!.(.Q.;.:.2.h.8.n.f.XXXX@.oXf.^ ",
"~ O.9X=XN g e T &.*.l s z.^ 9.m.z.<Xu.u.W.jXjX(.4XNXW.4XzX4Xs 4XNX4X| | F.'.!.Y.V.;XsXjX8X<.6.>.3.>XcXkX&.U.t.F.| G.=X%.! d.G / ",
"T Q C 9.N 2 : A >.R.5.n k , U M.i.tXJ R t.[ | Q.W.K.mXbXbXjXp.t.hX1.&.6._.dX4.G.;.v.&XB.<XiXE.J.R.>X>X7XG.4.| 3.P T f.! XXd...f.",
"oXQ q d.n.f 5 y l.*.n U.v.4 7XA 4 S M A ` x &.xXCXkXE.cX~.L.,XD.4Xa.a.T.^.1.a.L.n.v.oX1X0X,XcX6X<X,X6XdXdX).J.t.J.O.! ! ! Q @.@.",
"XXm.e.o.R R [ Q.L *.b &.v.i.L.d f G.mX-.<.6.!.F.BXmXeXu.6X5X8.3.gXp.u.W.1.A [ K.kX1Xm.u.Q.cXW.J.W.>XeXgXdXrXtXi.m.o.q 9 q C o.~ ",
"s.l.{ F T M.D.l j L g B 2 , , 2 *._.F.2.Z.2.` t.7XfXkX;.D.NXmX0.I D.a.p.L.Y Y } uX&XW.B.c.Q.b.kXxXrXwXyX0X-.q.} B S G ~ ^ R X.X.",
"Y R M < p 2 6.2.P S U 0 < S Y R 2._.{.nXvX1.] | H.0XyXH.d { p.x.2.4.3.x.G.y.O.N 0 V M.M.;.{ R >.F.~.6.8.8.2 R n.u.8.e.9.q.0.x.Y ",
"I Y M.b.b.v n l.,.4 0 C ^ i.0.M.v._.U.nXvXjX| { J.hXH.wX,.H Y 3.^.3.3.L.K.0X+.a 0 U ( ,.B W B I 6.:.:.h.X.h E.H.H.K.n.N.e.E M.u.",
"yXW 6.Q.2.].!.u.} 3 9 oXi.] H.M.H.T._.{./.dXdXu.Y J.tX>.J.kX,XeXx.t.J.h.n.&XkXO.G MX~.mX1XtXkXgX1XaX~.,XkX5.<.vXbXwX>.8.F 3 J *.",
"LX<X7.6.2.F.6XW.R 3 i O.] _ -.{ =.:.' 5.m Z.hXfXu.D yXi.A 7XmXX.9.G T V V V O.T F 9.r.MXGXDXMXrXFXCX7.d ).}.U.vXvXxXxXv.y [ 6.v ",
"Y.Y.I.I.I.5.yX3XA B M ..9.Y ;.u i.} _ n b &.J.7X7Xi.0X2XoXm.,.2 G i.F ~ ! 1 < i F f s d ( =.v.bXMX`.H.s {.xXmX0Xb.{ R ~ p N.3.x ",
"gXu.5.Y.}.Y._.<Xu.z.0.K W.Q.P u U X.P <.&._ &XX.+.h.<Xl.Q.n.3 a F n.i i C < i H a N K 2 M K y { *.w.lXY.F.kX~.dXwX0XS p w.9.z c.",
"GX} E.hXNXhXrXF.=X0Xb.B x.H.U X.oXf.P &.3.L.H B 8.;.H.H.X.f.H a f i D D i 3 y 8.[ f I e g g 2 z ' =.CXY.y.MX`.1.E.0XY ! w.2Xv.K.",
"l.E.{ &XhXdXbXCX*Xe.1 w.8.9.N / e.Y =.J i.s.D { >.>XBXFXXXoX=XX.0 H P 4.c.[ 5X;.W.3.-.E.l.j g d c A.hXz E (./.uXm.T F 2XoXMXL.P ",
">X7X,XDXtXrXc.8XeXM F &XJ.M 4 E U 4 3.A D } ;.W.MXiX2XiXXXXXXXo.< @.H.<.vX~.G.D.rX^.' T.^.T.R.F.7.[.F.6 m.cX4X,.9.q.9.,X..e.H f.",
"uX9X9XXXGXuX9.cXG.x.kX,X$.,XE q.J.J &.-.{ a.;.W.MX=Xe.g.g.C 0 C / g.F.2.6.x.{ l._.).2.x /.R./.).6.`.rXy ;.`.gXs.R -Xh.zXR g.i.-X",
"5X0Xy.>X0XqXqXkXhXhXCXW.P [ 9.CX~.3.I D.4X` 3.J.:Xe.o.e.OX9 ; o.d.u.rXhXM Y x.A =.L.K.{ ~.:.3.E.FXB.U.c.M z X.^ q.kXi.-X~.0Xh.lX",
"n.9X*X5X=X-XS.G.rXT._.'.!.x J.MXjX6.L H.;.*.:.5X:Xm.g.qXoX0 i OX} 6.c.m.2XN ;.L g M.n.H.` *.3.cXLXZ.!.cX1Xj D r.OX0X>Xp.tXm.X.g."
};
