/* XPM */
static char *ff581ee86f504d50c7140c77fb825f0cJggA18oa8Z9FToJn[] = {
/* columns rows colors chars-per-pixel */
"64 64 255 2 ",
"   c #2A5E61",
".  c #1B7072",
"X  c #29676A",
"o  c #34686C",
"O  c #396C72",
"+  c #28767A",
"@  c #37767B",
"#  c #2C6F75",
"$  c #275457",
"%  c #446E77",
"&  c #44797D",
"*  c #46757C",
"=  c #57747F",
"-  c #2C7E82",
";  c #397D83",
":  c #1E7C80",
">  c #457D84",
",  c #4B7C84",
"<  c #497B86",
"1  c #567A85",
"2  c #607F86",
"3  c #1F8387",
"4  c #2B8589",
"5  c #338385",
"6  c #33858A",
"7  c #3C858A",
"8  c #39888C",
"9  c #348D91",
"0  c #3C8D93",
"q  c #3C8695",
"w  c #3D9195",
"e  c #3D949A",
"r  c #37969B",
"t  c #26959A",
"y  c #399DA5",
"u  c #3AA3AA",
"i  c #35AEB5",
"p  c #19ABB1",
"a  c #44848B",
"s  c #4C848C",
"d  c #4C8A8D",
"f  c #458488",
"g  c #54858C",
"h  c #5B838C",
"j  c #56888C",
"k  c #448C92",
"l  c #4C8C93",
"z  c #488995",
"x  c #538C95",
"c  c #5C8C94",
"v  c #588B97",
"b  c #439195",
"n  c #4C9295",
"m  c #44949B",
"M  c #4B949C",
"N  c #4D999D",
"B  c #439A9E",
"V  c #539295",
"C  c #53949B",
"Z  c #5C949C",
"A  c #58989B",
"S  c #668B95",
"D  c #63939C",
"F  c #68969C",
"G  c #6C8D96",
"H  c #4C9BA3",
"J  c #489AA3",
"K  c #5595A1",
"L  c #5C95A2",
"P  c #539CA3",
"I  c #5B9CA3",
"U  c #529EA9",
"Y  c #5B9DAA",
"T  c #6D95A2",
"R  c #649CA3",
"E  c #6A9BA4",
"W  c #649CAA",
"Q  c #6B9DAB",
"!  c #6394A3",
"~  c #759CA7",
"^  c #719FB2",
"/  c #4AA1A5",
"(  c #4CA4AB",
")  c #46A5AB",
"_  c #54A1A6",
"`  c #53A4AC",
"'  c #5BA3AB",
"]  c #53A9AD",
"[  c #5BAAAE",
"{  c #5CA2A5",
"}  c #4CACB3",
"|  c #47A9B4",
" . c #5BA5B1",
".. c #55ABB3",
"X. c #5CACB3",
"o. c #58AAB6",
"O. c #48B3BA",
"+. c #5BB1B4",
"@. c #53B3BC",
"#. c #5CB3BC",
"$. c #57B6B9",
"%. c #65A2A6",
"&. c #64A3AC",
"*. c #6CA4AB",
"=. c #63A9AD",
"-. c #6DAAAE",
";. c #6AA1A5",
":. c #73A3AC",
">. c #76A5AB",
",. c #64A5B2",
"<. c #6CA5B3",
"1. c #64ABB3",
"2. c #6BACB3",
"3. c #63ADBA",
"4. c #6CABBA",
"5. c #6DA5B8",
"6. c #73A5B4",
"7. c #74ABB4",
"8. c #7BABB5",
"9. c #73ADBA",
"0. c #7CACBB",
"q. c #79A5B3",
"w. c #63B1B6",
"e. c #6DB2B5",
"r. c #64B3BB",
"t. c #6BB3BC",
"y. c #6CB9BD",
"u. c #64BABE",
"i. c #73B4BB",
"p. c #7BB4BC",
"a. c #7BB9BD",
"s. c #75B5B9",
"d. c #3FBAC0",
"f. c #4BB9C5",
"g. c #5CBCC4",
"h. c #56B7C3",
"j. c #76ADC2",
"k. c #64BAC2",
"l. c #6CBBC3",
"z. c #68B7C4",
"x. c #74B4C3",
"c. c #7BB4C3",
"v. c #73BBC4",
"b. c #7CBBC4",
"n. c #7CBCCA",
"m. c #77B8CA",
"M. c #6EB8CE",
"N. c #35CBD1",
"B. c #35D8E0",
"V. c #59C4C9",
"C. c #4AC7D1",
"Z. c #5BCBD8",
"A. c #52CBD4",
"S. c #6CC4CB",
"D. c #67C5C9",
"F. c #7BC2C5",
"G. c #73C3CA",
"H. c #7CC4CB",
"J. c #7CC9CD",
"K. c #75C5C9",
"L. c #6DCCD2",
"P. c #66C8D6",
"I. c #7CC4D4",
"U. c #74CCD3",
"Y. c #7BCCD3",
"T. c #75C7D5",
"R. c #6AD2D9",
"E. c #7CD1D6",
"W. c #73D4DB",
"Q. c #7CD4DB",
"!. c #77D6DA",
"~. c #67DBE6",
"^. c #79D8E3",
"/. c #70CCE0",
"(. c #52F5F9",
"). c #7AE2EA",
"_. c #73ECF3",
"`. c #84ABB6",
"'. c #83B3BD",
"]. c #87B6BD",
"[. c #81A4AF",
"{. c #84B5C3",
"}. c #8BB6C4",
"|. c #83BCC4",
" X c #8BBBC5",
".X c #84BCCB",
"XX c #8BBDCA",
"oX c #82B6C9",
"OX c #92BBC7",
"+X c #87BED1",
"@X c #83C3CC",
"#X c #8BC3CC",
"$X c #83CACE",
"%X c #87C5C8",
"&X c #94C4CD",
"*X c #98C5CB",
"=X c #83C4D2",
"-X c #8AC4D3",
";X c #84CCD4",
":X c #8BCBD4",
">X c #84CDD9",
",X c #8CCDDA",
"<X c #89C5DA",
"1X c #92C5D3",
"2X c #93CBD4",
"3X c #9CCCD4",
"4X c #94CCDC",
"5X c #9AC9D8",
"6X c #84D4DC",
"7X c #8CD3DD",
"8X c #88D4D8",
"9X c #94D3DC",
"0X c #9BD3DB",
"qX c #99D7DB",
"wX c #A3CCD4",
"eX c #A6CBD7",
"rX c #A4D4DC",
"tX c #ABD3DC",
"yX c #A8D9DC",
"uX c #B4D7DC",
"iX c #ACCDD3",
"pX c #8CDBE4",
"aX c #88D9E6",
"sX c #93D6E2",
"dX c #9BD4E3",
"fX c #94DBE5",
"gX c #9BDCEB",
"hX c #99DAE6",
"jX c #91CEE3",
"kX c #A4DBE4",
"lX c #A4DCEC",
"zX c #A8D8E5",
"xX c #B6DCE3",
"cX c #A9DAEC",
"vX c #8CE2EB",
"bX c #85E3EA",
"nX c #97E2EB",
"mX c #89EAF4",
"MX c #99E6F3",
"NX c #95F8FD",
"BX c #87F3FB",
"VX c #A4E4EC",
"CX c #ABE5ED",
"ZX c #B6E4EA",
"AX c #AAE6F5",
"SX c #B5EAF6",
"DX c #A4F8FC",
"FX c #B8F7FC",
"GX c #C6E6EB",
"HX c #C5EDF4",
"JX c #CAF4F7",
"KX c #D6F5F9",
"LX c #D6EBF0",
"PX c #FBFEFF",
"IX c #EAF9FB",
/* pixels */
"q.Q tX&X#X.X5.v.t.M :XVX~.Z.@.V.y M P J X.3.N H..X#Xb.sXp.< s =.] U W  X7.6 8 N I P N J / +.K.U.L.D.D.6XFX_ @ C v.X.i.|.;.`.].`.",
">.T XXzXxX2Xx.t.g @ s.KX~._._.VXb 8 b N ` r.H.t.b.#Xw.r.@Xv &.>X$.l '.x E 7 7 6 a.GX@XH.kX$X1.S.D.V.W.bXbX] b d N X.C x x Z 8.`.",
"F T Q 4XKXkX;Xi.& x t.` _ y C.%X/ 9 b N P I.;X*.:X;Xm ..n.l I aXr.I I `.8.-.- 9 JXxX+.y.e.i.e.$XD.D.W.bXY.e w M C I >.Z ; I 9.6.",
"0.! {.-X4XOXkX9X%.P X.] N k.i 4 2XX.0 b P 7XxXLXMXaXz.G.n.a U mXz.i.<.c.L W b 9 ( r e t.2.e.U.E.W.D.D.Q.U.w b m X.Z G ;.I <.-Xc.",
"}.Q uXrXoX*.qX7X-.7 N 0 V 0 t + [ rX6 a ; i.VXsX,Xv.1.P Y X.V.aXI.=X:X9.6.L Y M P 0 ` H.F.K.D.L.@.W.W.L.U.H P i.v.F G P tX.Xj.tX",
"E Q }.dX}.&.K.sX].+ { A 7.8 t 9 w r.y.N a 7 i.@X.X*.f x t.pXvXsXCXxXGXtXq.W K Y Y B @X9X=.e.D.D.!.!.S.S.7X&.a #X2XH I o.~.T.tXuX",
"&XW Y CXcX9.=.2X'.*X-.F -.` u 9 w 1.SXG.l.I ;.|.:Xb.v.Y.Y.3XXXXXzXOXeXKX{.L 6.xX7.P b.9Xy.] D.D.pXV.9XsXpXy.0 ' b.O.@.g.^.MXPXLX",
"' p.X.CX1Xs @ g c D & d V y.w.5 5 a =.` K.$XH.fXnX7XkX:Xx.K 1.q.}.}.OX{.0.OX1XxX&X7.2.ZX$XD.!.R.V.V.U.aXaXY.d l k k V.BXP.3.dX2.",
"P P 0XiXh F D O O , j s a ) B 6 + k N _ J.X.R ZXQ.fXAX@XD E 4X}.~ h = S }.*X*X-X0Xc.t.G.Q.!.!.).C.D.U.6XpX$XZ d i.k ).NX^.o.h.o.",
".X6.XXq.S >.F & j E c s k 9 / 9 - 5 N :X8X7.N VX0X,X@XZ >.].XX0.~ 2 G G ~ eX1XXXOXv.( ] L.!.!._._.6Xk.J.vX=.* I G.&.I.| 7.HXIXaX",
"FXkX-XR h * E >., c c ; 9 %XZXw w b 0 w.sXb.X.ZXKX.Xj h `.T ! [.}.1 T T ~ eX1X0X8.t.+.X.] } U.!.9 @ =.$X9Xn @ { +.A {.Z >  XJXvX",
"FXSX-X@ & s a s % f *X[ } rX Xe w [ t.r.Y.' n &.3X`.% ~ ~ < ! `.G 1 ~ ^ q.}.6.xX'.&XF.v.M - u 4 X 5 y.J.I P t.' z *.#Xr.I ,.x.,X",
"0.MXn.> a f < ! x l J @.) 3 4 m k n e U.6Xv.Z < S 1 1 1 h x .X`.1 T ~ }.[.T ! tX0.c.s.n d 5 t . 5 ) ..X.N y.$XA c 7.b.&XI 4.XX~ ",
"Q m.FXIX*.@ s 9.Y a J @.J H J U 1.t.] +.k.r.*X*.Z S 1 S T .XAXeX^ ^ Q Q ~ *X'.{.<.; @ # 4 N.i + . + X d d F >.; a &.|.uXk *X3X:.",
"{.#XH.#.z > 7 M P ) y J X.r.] 3.v.2.a &.C Z 3X6XA g , `.eXgXgXdXjX+Xj.j.j.0.Q 4Xp.+ N O.B.(.B.. C n Z E D R 7.%.5 P XX@XC 8.`.zX",
"iXkXI b p.7.` f.k.k.J H X.X.o.l.l.1.C ,.L C 1.t.@ O C 0.dXjXm.6.-X<X5.! 0.Q Q 2XZ @ 2.] r i N.].ZXC n e.-.%.s.-.5 &.j j 7.8.&X2X",
"7.c.s > Z.).R.bX,.s s s A 7Xr.3.H.X.l.r.i.U e =.> @ &.>Xn.+XeXQ 0.4XoXZ R 6.6.W R ; ; f l e O.V.B 0 @ ' m 9 4 + 6 *.$ , A W c.7.",
"}.8., M f.~.T.c * s v f &.H.3.1.,.P 3.4.X.U rXb.s :.CXT.x.4XLX}.'.0X4X'.D Q xX#Xb.L f a X.K.4 } nXe.;.i.8 8 s.[ i.F   D l '.GX].",
"E h S U @.h.k :.*Xi.2.,X9.K x.=X4.,.1.8.4.Y t.@Xz z.0XX.p.:X4.1XdX#X{.OX~ q.CXlXgXb.H t.+./ b %.P w.i.P 5 @X$X[ 1.%.Z l R 7.W 0.",
"1 G q.o.P.r.p.gX#XH.=.1X8.<.b.2.c.c.A I 1.x.( P.P.a oXH.a &.4.t.r.4.oX}.tXtXSXlXx.dX0XX.N 4 B 2.2.J.6X$.e 9Xy.2X@X@Xe.`.C 2.:X{.",
"c x I V.X.2.i.W p.{.s.b.*X0XdX9Xc.L ;.p.H.v.^.Z.' v {.kXx Q v.9 9 X.dXkXcXSXZXZXY 4XPX' # - 9 m 9 4 X.$.f.mX@.J [ w.X.#XwXn.9X0.",
"L L 3.h.q  .Z Z 7.t.=.uXGXwX=Xn.c..XC 4.t.P.mXr.i.v v @X,.l ] J 4 ..9XkXzXAX+XdX*.l.MXY V _ / 4 9 9 5 4 } ^.N.p t 9 ( nXlXm.c.W ",
"<.4./.H N N i.7.|.t.H iXrXXXuX3.1XOXv v 4.Z...1.2Xz s &.3X&.C +.] ] x.{.SXHX XkXL v.G.s.I =.w.+ 0 8XJ.) u 8X8Xi | o.X.S.CXxX5.! ",
"-Xm.M.` H z @XE {.c.5.,..X XyXG.1.Z F A !.P.b N X.b.s V {.tXp.r.Y.I.{.6.cXLXxXb.a  .e.tXl V F.P w y.r.L.U.U.V.U.9XQ.T.X.ZXHXW 6.",
"<Xc.4X .K 5..X0.:.0XzX=X'. X-Xv.3.6.:.4.mX( J X.3.9Xc.x a #XuXG.Y.@XuX9.GXPXcX*X{.'.{ &.A { +.3 / D.4 J.qXY.V.CXkXk.aX-XlXFX9.W ",
",..XlXoXeXj..X{.{.XX{.,.Y M 2X@X' *.-.2XE.0 G.t.XXt.|.b.9.VXCXY.S.r.2X,XPXxXrXxX&X:.j > { 1.] #X/ D.} 8X:X7XL.aXaXU.fX&X0.AX-XY ",
"tX5Xj.m.eXm.+X6.}.q.F :.b.2.4.#Xp.&.8.n.3Xb I :.XX2X&.H.sX9X0XG.w.#.v.rX0Xb.*.R s q.E f I b.l.:X0XK.W.g.u.D.!.6XaXVXsX0.}.c.! *.",
"4.x.j.x.,.1X1XL Q T 1 D R 9.kXuX-.F * fXuX- I {.XXkX8.W :XgX.XoX;XS.Y.4Xc.W <..XZ ;.1.i.t. .3.v.KX:XD.D.k.L.U.E.aXMXVX{.-Xn.9.0.",
"` ,.n.m..XlXSXXXE G h wX7.*.i.l f h E ,X].*X7.v {.+X4XD v *.}.zX,XfX7X-XZ '.XX' I A / 9X0Xo.X.H.:X0X3.E.U.D.U.6X>X,XAXlX4Xj.,.t.",
"] e T.m..XzXzXeXT 1 * ].#X*.*.l Z c t.t.W E Z c 0XSX4X.XF ~ [.XX{.}.E Z 3.fXpXl.%.P ] 0 X.r...H.s.8XsXsXpX).W.6XfXgXSXzX6.n.X.0 ",
"..r $.:X9.8.8.q.S G T s W E Z s.2.=.J 7.R s %X*.1X.X0X-X,.#X`.~ ~ T h 1.~._.KXDX).Z.~.V.h.| @.VXJ.G.sXjXfXMXmXMXfXAXlXm.*.2.k.r.",
";XU...XX{.`.q.~ `.&X~ O > i.1.u.e i O.M z &X:Xa.7.7.c.4XkXuX8.~ = G #XT.l.Q.SXVXL.v.hXS.( J ( nXSXv.v P 7XgXMXMXfX,XxX2X' M ..$.",
"$.R.} ,.'.`.F S `.1Xc ;.p.l.^.Q.u y f.fX8.N l &.7.i.=X|.#X].h * % c.:X7.;.{ ] {.wX=.[ k.r./ X.;XF , c #XfXlXhX3.Y '.GX#Xt._ 9 r ",
"} ) ) I ~ W p.}.6..X,XpXaXW.pXl.5 0 r.pXE.` 8 A *X' 2.s.p.g % x ,.@X{ &.d V t.1.t.0 ] S.] J ZXc.; O ~ CX=XI.>Xx *.Z M 5.c.n.X.e ",
"=.[ M 2.:.p.p..XjXaXmXpXH.7X:XH ` ] ] ( bX).k.` KX|.M 2.d > l.k.yXJ.+.r.R , c {.3X{.X.o.] fXGXa f f -.:XI H.nX#X,.2.,.tXeX1Xv...",
"e.v.' [ =.z.T.>XDXvX>X=X:X;X' N J.#.%X3XU R.bXqXK.P =.=.d k.W.J.K.S.J.4.6.c , , ].{._ r.fXpXH.l p.2X:X&XK ^.g.3.b :XdX5.0.p.t.k ",
"r.7X>XG.v.y Z.NX,Xx.v.b.,XH.2.1.X.v.|..X .X.g.MXIXX.i.[ L.U.@X;XY.H.&.'.R XXc.x A &.C *.:XG.8X:XsXpXdXrX-XT.y J H 1.t.Y 6.R 7.e.",
"_ x.n.4. .h.~.Q.v.@XH.V &.fXl._ a.I %Xx.n. .' V.bXJX%XY.L.Z g 3Xv.1.R 7.> XX7.9.x.@X2X%.a _ 6XK.Y.K.X.t.c.7X^.e H  .U n..Xg x ..",
"4..Xn..X+XaXT.#Xl.t.@X7.I >X;Xa.R D 8.D A 1.t.=.k.G.b P t.# * 0X:X:X#X! 7.Q K n.x.x.,X` k e.Y.U.S._ 7 b B k.NXX.H #X2X=XSX7.x Y ",
"JXHXgXAXdX=XP.o.o.r.LXxX3.6Xl.|.-.>.:.E x i.%.> > | 6 _ F.R > -X@Xc.7.wX3Xp.#X1.i.kXt.' P t.6X6Xu.+ + 9 e u ).l.H 7.XXz 9.c..XlX",
"fX=XAXSX4X4XmX} ( 4.*XuXZX#.i.e.F F Z *.#Xa.s Z <.^.^.Y.;X*X|.=X{.wX2.wXiXuXxX1.J.HXJ.l.v.v.;X6X[ + 7 4 6 y C.@.|.|.I R E {.XXsX",
"}.W c.CXc.<.NXL.N R l b 0XC p.p.c 7.2.a.s.F.|.=X2.R.mXfX;X{.CX7X5XtXR s.p.p.C ,Xi.uX:XS.6XJ.J.H.S.P l 9 e | C.) z.sXx.lXcXlX,XXX",
"eX0.6.1X6.l vXA.V c a 8 y.%.n '.F -.P i.s.a.a.2X3XX.aX>XnXsX7XhXkXwX:.1X&XR &.,X,XlXY.U.E.;Xt.I 1.@X&.` J C.C...` >XVXSXSXdX.X&X",
"zX9.c.dX7.K R.V.l Z 5 + e.2X%.c :.@Xw.F.s.s.%XF.$X.._.pX>XgXhX,XZX0Xi.V M P  .;X,X,XfXQ.S.E.Y.G.z.J.yXr.h.Z.} ] n.2XdX1X6.uX3XeX",
"4.9.+XgXC l i.+ 7 V w 4 N Z & o @ & d =.@XrX>XE.L.)._.W.m t.I.2.C &.I n P H H ;X=Xn.pXQ.U.VXPXnX^.).h.| R.E.[ P |.6.6.*X6.{.4X|.",
"c.c.j.-Xx f 7 + + # b 5 A V @ X X O f d W c.Y.E.U.h.h.o.M ] ` &.l I ' M H  .k.NXDXDXDXmX).FXKXbX).).k.( | | l x l R 6.0.uX X0Xn.",
"0.4X4X1X! z 5 7 9 + + + e.7.o o X 7 P V a l.;Xr.fX0XH i.3.z.U b @X0X7.I &.' ^._.NXMXdX;XQ.Q.L.S.U.^.Y.' ) @.,.2.9.9.c.6.q.}.~ E ",
"v :.1X`.s 7 @ A ( i r 5 2.D R a.e.F.r.1.v.6XpX>XI.SXb.G.VX=Xq @XSX@XP  .l.E.Z.P.g.n.2X,XY.X.X.[ ..T.hXrX .g.1.4.' 4.}.E S [.D E ",
"F h h :.f + + 0 X.D.i u a   Z i.2.9XN C 1.P P I.=Xn.lXnXvX0X7.3.7X'  .o.^.^.o.9.` t.b.H.$XrXF.l.J.H.@X:Xv.@.` ,.z L [.h `.[.F 7.",
"`.S 1 q.8.@ # - ` ( i f.k.+ &XV @ k 7 0 H k ( ^.SXkXI.vXU.i.XXl.8Xo.o.T.T. .t.m.i.s.s.%X0X$XqX$X;XJ.;X0XfXW.b.1.b.E S F S h E :.",
"p.0.Q T E N n $Xm B y ( v.t.#.6 7 s.ZX` } g.L.G.SXAX>XX.Y.$XX.X.0Xv.o.G.,.k I c.yX&Xp.w.@XqXK.F.F.;X>XnXfXaX2X-.p.E h O * c T D ",
"5.4.&.j n y.v.t w m 5 k o o X # ) ~.g.@.g.#.H Y 4XfXrX<.v.SXVXX.J r.r.3.i.K C I 2Xa.@Xu.u.J.y.yX8X6X6X7X2X] -.%.k a S F R A W I ",
"I A > O f @ $.} b n V & O x V N r.W.).BXbX..M Y n.,X0Xv.; C 2.t.#.o.X.t.x.,.R g > j s.S.[ A A =.S.K.w.=.I @ I e.1.*.;.7.-.=.i.P ",
"B M i.p.w.B } w.{ & & j R 2.-.y.u.Y.U.BXBXE.U Y x.fXG.E.' l n r.G.X. .v.x.3XE 1 * x { / d d a N +.] _ e.&.9 l.v.v.|.i.2.-.P e.2.",
"qXJ u.S.#.~.L.[ { O % 7.-.C t.K.k.G.E.).P.pX6X1.K c.:XX.b.rX,X;Xi.1.|.t.p.c.xXQ Z ZX8XuXJ.qXuXqXU.6X6XH.yXf.O.vXvXY.r.1.d @ b N ",
"PX$X) #.} V.:XF.N & & *.V C ' P ( ] H f.i r.fX9X<.z rX=.k ,XkX;.*.v A s j < *.Z x 2.] GXJXHXVX7XIXJX} 5 6X_.P.bXbXbXbXt.@ N @.y ",
"C.R.N.N.B.@.0X:Xb s a A *.N P 5 2.A M i u ( H.2X1X1.wX$Xi.b.' @ v 7.x D F O O * x k ; 5 A { V.VXCXU.F.5 ).vXZX8Xt.P R c g p.] u ",
"qX+.O.Z.(.(.U.@X2.2.1.M v.Y.C @ V R V ) ) J .XI W 7.@Xw.:Xt.@ , x 5.f a > O , j < f d # a 0 8 ] } X.uXC.D.yXQ.8X;X3Xl j E &.m e.",
"GX_ l.7XNX8XaXl. X0X7.d i.v.l E '.*.n ( r.7.L l L 1.v.v.Y >.c , < z k 0 ; @ ; &.R a n 5 8 8 + a w &.FXC.-.ZXS...G.&XC c *.&X1.b.",
"r.v.Y :X6XfXnXSXa.7.O F &.=.f :.*.A ] B ' 7.z C 4.n.SXIX0.`. XW > l V ] z.L  XX.K.X...l.w.0 7 7 5 f.mX7 I 6XY.wXs.P x &Xp.xXb.B ",
"H.9X.XHXeXaXm.,XaX, c b.i.l @ Z n - ] b l P ,.@XxXqX;XzXp.q.`.F O E 0.| BXm.x.z.6XU.) S.E.D.V.V.i ~.u.X 7.vX;X*.;.1.*.#X&.&.Z ,.",
"wX:X#X0.LXeX,.MXx.x.kXH.1.p.&.&.].b ` I I 1.` I.GX].&.q.p.j % S F p.l.f. .i.U #.!.E.f.r D.L.^.!.V.U.8X@ =.Q.qX*.A #X8.iXP 7.6.OX",
"*X,X7.XX1X5X4XgXlXjXFX;Xz N 2.GX@X} _ t.%XH [ b.n.7.F :.'.% o E 7.&.^.hXa l s.M P a.i.' %X` ] F.LXD.D.r.8 w { { &.uX7.|.8X2Xc.uX",
"c.-X-XXX X1Xc.x.8XS.W./.T.e i.SXpXX.m z.] J X.@XXX'.7.5X}.* *  XR #.z.s.&Xl ' b 6 e.i.v./ / $.qXPXD.V.CX;X8 f 7.|.*X|.r.9Xs.E 8."
};
