/* XPM */
static char *de249a3bc2664963b7b1ae2b3d6ad483GsrFtUgpXy1IZF4z[] = {
/* columns rows colors chars-per-pixel */
"64 64 256 2 ",
"   c #070606",
".  c #140B0A",
"X  c #17120D",
"o  c #0A0D11",
"O  c #160E12",
"+  c #091516",
"@  c #141314",
"#  c #1C1B1C",
"$  c #181718",
"%  c #08130C",
"&  c #241B1C",
"*  c #271A1A",
"=  c #27130D",
"-  c #25221C",
";  c #36231D",
":  c #1D1D22",
">  c #171C24",
",  c #081B22",
"<  c #241D22",
"1  c #2A1E23",
"2  c #301D23",
"3  c #1B2428",
"4  c #192E32",
"5  c #242223",
"6  c #2B2425",
"7  c #24232A",
"8  c #2B252A",
"9  c #2D2A2B",
"0  c #272A29",
"q  c #332C2D",
"w  c #342627",
"e  c #2A2B34",
"r  c #342C32",
"t  c #392D35",
"y  c #293439",
"u  c #393234",
"i  c #373438",
"p  c #30312E",
"a  c #18211C",
"s  c #46322E",
"d  c #64473C",
"f  c #55433B",
"g  c #293944",
"h  c #343B46",
"j  c #283750",
"k  c #1C3144",
"l  c #2A4648",
"z  c #364649",
"x  c #2B4754",
"c  c #394858",
"v  c #395559",
"b  c #295759",
"n  c #3B4B64",
"m  c #3C5369",
"M  c #35586A",
"N  c #1B7878",
"B  c #156B6D",
"V  c #286669",
"C  c #38676A",
"Z  c #277679",
"A  c #38777B",
"S  c #316D73",
"D  c #1D4F52",
"F  c #454B5A",
"G  c #4E5253",
"H  c #775648",
"J  c #44536B",
"K  c #465668",
"L  c #485A75",
"P  c #4F576C",
"I  c #46656A",
"U  c #57666A",
"Y  c #4A6777",
"T  c #566778",
"R  c #48767A",
"E  c #567579",
"W  c #656B79",
"Q  c #6E7271",
"!  c #43635E",
"~  c #454543",
"^  c #956756",
"/  c #947467",
"(  c #AB7A68",
")  c #9E6652",
"_  c #32847D",
"`  c #92847A",
"'  c #B28574",
"]  c #C38978",
"[  c #387D84",
"{  c #2B7A85",
"}  c #4A5F82",
"|  c #4D6383",
" . c #566B86",
".. c #487B84",
"X. c #587787",
"o. c #5A7694",
"O. c #4D7195",
"+. c #646D89",
"@. c #647789",
"#. c #677B94",
"$. c #7B7D92",
"%. c #2A8589",
"&. c #388689",
"*. c #3B8D94",
"=. c #399597",
"-. c #2D9393",
";. c #399CA4",
":. c #3AA6A9",
">. c #3EABB1",
",. c #2AA79B",
"<. c #4C848C",
"1. c #46878B",
"2. c #56858A",
"3. c #428C93",
"4. c #4B8C94",
"5. c #498997",
"6. c #588B95",
"7. c #44949B",
"8. c #4B949B",
"9. c #489698",
"0. c #53949C",
"q. c #5C949B",
"w. c #579799",
"e. c #49918F",
"r. c #64848B",
"t. c #638C93",
"y. c #6A8896",
"u. c #748B98",
"i. c #65969C",
"p. c #75959C",
"a. c #4A99A3",
"s. c #549BA3",
"d. c #5C9CA3",
"f. c #5799A5",
"g. c #5198AD",
"h. c #639BA4",
"j. c #6C9BA4",
"k. c #6B9DAA",
"l. c #6598A6",
"z. c #749BA6",
"x. c #6E95AC",
"c. c #49A5A8",
"v. c #54A3AC",
"b. c #5CA4AB",
"n. c #5BABAD",
"m. c #56A5A6",
"M. c #4BABB4",
"N. c #5CACB3",
"B. c #56AAB5",
"V. c #4AB5BA",
"C. c #57B6B8",
"Z. c #4AB3AA",
"A. c #64A4AC",
"S. c #6BA4AC",
"D. c #6BAAAC",
"F. c #65A7A8",
"G. c #72A2AC",
"H. c #77A7AB",
"J. c #6CA5B2",
"K. c #63ACB3",
"L. c #6BABB3",
"P. c #67AAB8",
"I. c #74A5B2",
"U. c #72ABB4",
"Y. c #79AAB8",
"T. c #6CB4BB",
"R. c #6CBBBC",
"E. c #66B4B8",
"W. c #74B2BB",
"Q. c #7BB4BC",
"!. c #73BABC",
"~. c #77B5B7",
"^. c #6CB1AC",
"/. c #52A29D",
"(. c #6DC2BC",
"). c #30BCC3",
"_. c #5ABBC5",
"`. c #4EBEC2",
"'. c #6ABAC4",
"]. c #73B5C2",
"[. c #73BBC3",
"{. c #7CBBC4",
"}. c #7AB7C6",
"|. c #73B7CC",
" X c #36D2D4",
".X c #5BC6C9",
"XX c #50CDD0",
"oX c #68C6C9",
"OX c #74C3CA",
"+X c #7BC3CB",
"@X c #77C6C8",
"#X c #6ACCD6",
"$X c #78CBD4",
"%X c #6CD4D7",
"&X c #79D6D9",
"*X c #70D3CC",
"=X c #79DAE2",
"-X c #66D8E2",
";X c #73E9ED",
":X c #57F1EB",
">X c #29C9BF",
",X c #B19689",
"<X c #849AA9",
"1X c #839BB3",
"2X c #84AAB7",
"3X c #85B4BB",
"4X c #8DAAAF",
"5X c #9E9589",
"6X c #C59B8A",
"7X c #C4B1A8",
"8X c #CFC4BA",
"9X c #83B5C4",
"0X c #83BBC3",
"qX c #8BBDCB",
"wX c #88B8C6",
"eX c #93B9C7",
"rX c #8BB7CC",
"tX c #A4BACA",
"yX c #83C4CC",
"uX c #88C6CA",
"iX c #95C4CC",
"pX c #83CCD2",
"aX c #8CCAD3",
"sX c #89C7D5",
"dX c #93CBD4",
"fX c #96C8D8",
"gX c #88D5DA",
"hX c #97D4DB",
"jX c #A5CADC",
"kX c #A7D3DB",
"lX c #B6CDDB",
"zX c #92E3DC",
"xX c #88D8E4",
"cX c #9CDBE4",
"vX c #96D9E6",
"bX c #93D2E4",
"nX c #A7D9E6",
"mX c #B4D9E9",
"MX c #A6DAF1",
"NX c #88E4E7",
"BX c #96E3E9",
"VX c #98E9F5",
"CX c #89EBF7",
"ZX c #B5E4EA",
"AX c #A8E6F5",
"SX c #B8E9F8",
"DX c #B9F6FC",
"FX c #A8EAF2",
"GX c #DCD7CE",
"HX c #E5D5CA",
"JX c #EDE8DC",
"KX c #C5EBF8",
"LX c #C5F7FD",
"PX c #D9EEFC",
"IX c #F5F4F6",
"UX c #89C4BE",
/* pixels */
"I.S.kXeXiX{.U.'.W.4.iXFX-XXX`._.a.*.v.a.B.E.8.+XsX0X{.nXY...<.A.m.s.F.0X~.A 8.7.w.m.7.c.c.C.$X#X#XoXoXgXDXm.A w.}.A.!.0Xz.2XwX2X",
"Y.i.qXnXmXfXL.].4.S 3XLX=X:X-XFX7.3.*.a.v.K.+XT.Q.pXN.K.sXq.b.&XN.3.Q.<.A.3.Z 7.eXSXqXyXcXyXK.@XoX_.&XNXxXN.e.e.s.A.4.4.2.l.Y.3X",
"i.z.l.dXLXnXaXW.[ 4.~.d.v.:..X+Xs.&.8.7.s.+XaXU.iXpX=.v.yX5.g.NX'.b.h.0XQ.A.[ =.DXFXA.W.W.~.W.+XoX#X%X=X$X7.&.w.0.d.k.t.A f.Y.L.",
"9Xq.9XiXdXqXAXgXS.q.n.v.a.'.;.-.gXK.&.4.d.gXnXLXnXvXR.$X}.6.0.+Xh.i.t.z.y.k.q.[ /.7.=.E.K.R.OXgXoXoX.X=X*X7.7.7.n.q.t.z.k.L.sX{.",
"3Xk.ZXkXQ.J.cXxXS.1.c.*.0.3.=.N n.vX&.3.[ L.nXkXgXW.L.h.<.C C v x z c h c v M R 4.<.A.+X[.@XoXoXC.&X$X#XOX7.f.R.}.z.l.s.hX+XK.mX",
"k.z.wXhXeXJ.!.gXyXS w.q.D.-.-.&.&.T.T.8.&.[ Q.uXyXS.Y x g 4 3 G 5X` Q G # o + 3 b C qXcXK.N.oX#X&X&X#X'.xXK.3.yXfXf.s.C.%X+XmXlX",
"aXh.h.FXnXQ.A.hX3XyXU.j.D.c.c.*.9.n.DX[.[.A.b.{.0Xt.c # $ ` GXJXJXJXJXGX8XQ @ o + 4 6.hXT.N.oXoXNX_.&XBXvXT.[ A.OX>.V._.;XAXIXPX",
"A.[.A.AXaX<.R 1.2.i.R 2.4.!.E.%.[ 3.b.n.[.pX[.cX<Xl   u 7XHXHXGX8XHXJXIXJXGXQ   O   v kXpXoX&X%XC..X&XxXgXpX4.4.&.5._.;X|.N.zX^.",
"d.a.hXlX2.i.t.Y S ..6.2.1.Z.:...Z 3.d.d.OXN.F.2Xi   & 5X,X' / ( 6X,X,X7XHXJX8X# % < e U.*X&XxX-X.X#X#XgXBX$X0.2.W.=.;XCX$Xn.C.v.",
"+XJ.iXY.t.G.t.R 2.j.6.6.e.&.s.3.%.&.8.vXgXR.R z o   f ` / d ^ ) 6X( H H / 8X7XG   + + R oXxX&X:XCX$X{.+XgXD...h.@XK.{.m.R.PXPXvX",
"DXjXeXd.2.R S.U.R i.t.A *.yXSX=.*.3.&.K.gX~.v o     s d ' 6X' ( ] ] ' 6X6X` 5Xw . @ + <.Z.C.OX%X*.[ A.pXgX0.A d.n.d.wXa.[ eXPXvX",
"DXSXdXA R 2...1.R <.yXv.C.cX0X=.7.N.R.E.OXw.x o   . = s ,X' ) ) ) ( ( ' 6Xd G = . & l q.7.%.:.%.B %.oX+Xb.m.E.A.9.S.yXK.h.S.T.pX",
"Y.VX]...<.....S.6.1.c.`.a.{ %.*.*.7.*.&X&X!.I 4 #   . = / / ^ ' ] ' ( / H ; X . $ y 2.6.0.%.-.B &.9.Z.K.8.E.pXw.2.I.0XaXq.L.yXz.",
"z.'.DXLXi.[ 4.L.f.*.:.V.a.v.;.b.P.[.v.N.OXK.uXR > $   = s f d d ^ / H s ;     # y v S B -.).>.{ B S S e.4.j.G.A 4.U.3XhXe.qXjX<X",
"9XsX{.W.4.A 3.a.a.B.=.;.B._.v.P.|.K.[ L.4.d.hXeXF $ O . X - = * ; ; ; X *   5 @ Y 2.e.V. X:X XZ w.w.q.F.w.j.Y.F.%.w.wXyX7.9X2XkX",
"kXmXh.3.{.U.v.B.|.'.7.s.C.N.A.|.'.W.6.S.l.2.Y I $ o O   X * . - . X - $ O X @ o x c z.f.g.).>X@XZX0.8.H.H.S.^.D.%.G.X.6.Q.U.sXdX",
"I.9X1.[ #X;X#XvXJ.<.....k.vXN.E.OXK.W.2.R g i 8 < #   @ o   . $ # O # $ $ @ : : i y g v I i.N..Xs.*.[ s.7.-.N %...G.b X.q.b.].Y.",
"wXI...a._.-X#X0.....w.1.h.}.'.n.b.d.X.l y 0 7 9 q 8 < : : O O @ < $ 8 8 9 8 e e i i e y c Y A 9.BXS.G.@X%.3.Q.A.(.q.C i.4.3XSX9X",
"j.2.q.v.V._.5.S.qXQ.D.pX[.a.].pXh.R y # 6 q 6 9 r 9 e 8 8 < # # < 5 r r i t t t t i r r i z l R ,.E.Q.s.%.pXgXm.n.D.6.4.i.H.l.2X",
"..j.Y.c.oXP.{.nXdX0XF.yXW.J.Q.F.Y y : & w * 6 9 8 9 9 9 8 i < < 6 8 t r t t r t t r t u 9 9 7 l E 3X@XC.:.NXP.cXyXyX~.I.q.L.gX{.",
"2.6.d.oXC.K.9Xi.Q.9X0XQ.wXmXiX2.y > # 6 6 - 8 6 q q r r 8 i # < 8 q u t t i t t i r r u r q $ : i C n.oXV.VXB.:.m.E.N.aXhX[.aX}.",
"J.6.P._.*.b.q.q.L.L.I.mXKXtX@.l e 7 . $ 0 p 6 6 q 9 r r i i 5 5 8 9 i u u s u i r i i e i 9 @ 8 4 l b { M.xX.X,.=.%.v.BXcX9X9Xk.",
"l.P.&Xa.a.8.W.S.yXQ.4.nXmXu.z 3 6 5 O $ 5 - - 9 0 6 q r i u 9 q 9 9 q u r i u u q i i 5 : $ @ 8 2 t U 1.a.$X&X:.:.C.N.OXAXmX2X6.",
"fX|.'.g.a.4.yXk.Q.W.P.A.G.K 5 6 - $ * * & @ 0 - 9 9 6 u 9 q 6 u p 9 p u 9 u u r u 6 q & @ : 5 8 q 6 y I E.&XoX$XBX$X$XJ.mXDXd.I.",
"sX}.sXv.f.I.9X].1XdXcX2XT e 6 6 * % $ . @ - @ # - 6 w q q q 6 w u q u q q u q q 9 & 6 & * & 6 & & - r i r.(.oXVXFXR.$XfXMXDXP.k.",
"I.9XvXrXbXY.wX9X9XuX3XY 7 8 5 & - #       $ @ < # & 1 5 6 9 6 6 r 9 q q 8 8 6 & 5 # - . o # $ $ & 5 6 5 z w.OXxXpX&XBXwXY.AXsXl.",
"mXsX].rXjXqXuXG.9XG.Y y & < @ # X . o   i . * * # * & & 5 7 < 6 6 8 q r 9 6 5 5 * * w O   o $ * < 5 9 q 0 I {.xXhXVXvX}.rX9Xh.k.",
"I.}.].].k.sXdXq.S.y.h 5 w 5 $ $ .   o C Q @ 1 & & & & & 6 6 < 1 1 1 q r q 9 6 9 6 - 5 3 y , o @ O @ 5 6 & e 2.{.gXBXcX9XqXQ.}.U.",
"v.b.+X|.sXMXZXdXi.U 9 $ - @ $ & @   z U.W y < < * * * * 6 6 & & 6 6 q q q 9 0 9 6 # + v H.E 4 o O $ $ & ; 5 l k.sXbXAXMXbXY.J.E.",
":.a.$X'.].jXmXfXr.e < # $ X O @ + g i.D.r.z : # * & * & 6 6 & & 6 6 q q 9 9 0 9 w 8 y C d.S.E ,   $ @ @ * 6 3 X.sXMXSXMXW.}.P.=.",
"M.=.N.gX}.2X2Xz.U 0 q 5 # 8 $ + l 4.7.P.A.I y 3 $ # & & 5 5 & < 6 6 r 9 7 8 7 7 # o C K.C.M.b.<.$ @ # # : 8 7 v W.SXnX}.A.W.T.C.",
"gX$XB.qX9XY.z.u.z 9 6 q 8 & @ l S c.>.a.&.4XF : 3 : : # 5 7 : < < 8 r 8 7 7 : > r i y.'.V.:.v.qXG @ $ > e < e 0 w.wXnXaXA.4.K.C.",
"C.&Xc.K.9X2Xp.U 0 0 q 6 6 < l k.a.;.V.vXQ.6.F h h h y e 3 3 3 > > 7 : > e g c c T +.+.k.'.a.n.yX! @ O @ 3 7 : 4 b <XmXuX{.s.-.=.",
"M.c.c.m.k.k.G.I w s t w 6 4 t.D.%.=.N.BXpX..P v c c F F c h g g F F z h F K L T m T #.h.8.v.DX9XI 3 @ & O r # 6 h E q.J.9X}.R.-.",
"N.m.9.D.Y.Q.h.Y r 1 9 i g 2.+X9.v.v.h.b.gX2.Y L J J J F n c c K W F F F K L L L | +.Y q.K.vXSXX.2.I 0 # O 6 6 * e r.F.cXfXfX].M.",
"[.yXm.D.h.T.+Xl.u.U U U u.9X8.a.$XC.qXhX8.Y  .L J m J J J m x K W c J J J L } | }  . .2.hXhXsXq.U.uXE @ # 3 0 - k H.hXL.Y.9XW.*.",
"N.gX$XOXOX;..XVXwX4X4X4XeXqXL.A.c.+XeX+Xn.@.#. .Y J L m m m x J P x n J m } | o.O.| X.@.qX@XgX+XvXhXH.@.E Y b I <.w.R.b.U.h.U.K.",
"b.T.[.b.v._.;X=XQ.iX3Xp.L.xX[.b.Q.i.eX3XD.Y u.t.o.| Y J m m x j j j c J L  . .o.O.O.X.X.2.b.&X*X$XOX^.F.k.sX+X3.d.n.v.'.0X6.6.E.",
"J.wXwXfXrXxX#X+XOXD.3XH.8.NXOX!.j.i.D.t.j.t. .y.#.o.o. .| L n k k j n L T  . .X.o.o.r.X.j.K.gX$X$Xs.&.7.a.|.FXM.8.OXhXsXSXI.5.f.",
"LXLXhXSXMX$XoXP.B.~.LXZXL.pXQ.iXD.S.F.z.y.y.$.#.y.#.#. .| L J j k j j n J Y Y  .+.#.X.t.h.R.$XvX_.{ Z =.=.a.NX.X7.W.eX6.Q.Q.{.AX",
"bXsXAXSXfXfXBXV.c.W.iXmXZXD.!.W.i.z.6.F.dX<XT #.#.#.#.o.Y L m J E c J m J Y Y T +.6.2.y.Q.[.&XgXM.{ &.%.%.c.XXM.0X{.d.l.k.}.qXcX",
"qXl.}.AXwXA.VX#Xw.d.q.4.hXw.Q.W.q.H.U.!.D.z.$.@.@.@.#. .| L J r.4XY m J L  .T  .T @.y.j.hXyX{.yXOXs.6.=.=.M.XX;.].vXW.MXAXnXdXqX",
"jXY.Y.fXI.4.NX.X6.q.&.&.!.F.6.3Xw.^.w.!.{.H.E @.u.#.o. .Y J m <XkXz.c J J J  . .@.@.@.2XgX*XC.m.b.aXh.v.;.`.XXV.g.gXcXAXSXhXwXiX",
"nXY.Y.hXY.0.&X.X6.w.*.N E.hXq.t.D.!.^.!.~.3X@.@.+.@.o. . .T Y 3XZX2Xm c n Y | @.+.o.u.iXC.&XpX@XE.pXvX_.V.#XV.B.].bXnXdXG.nXfXhX",
"J.L.sXcXf.8.N.N 1.9.&.[ 8.m.A C R ..4.A.yXhXp.T @.#.y.X.L P Y 2Xq.H.v c c J T T #.X.<XaX*XSXIXBX&X=X_.M.=X%Xv.8.yXS.I.fXI.wXfXwX",
"}.}.].sX4.A 3.Z N Z 8.[ s.4.A V b S 4.4.b.~.i.@.+.X.X.Y K L X.k.1.G.E c c J K @.#.u.tXcX=XLXPXNX;X=XoXv.c.M.0.w.2.j.I.2XnXeXfXwX",
"Y.fXfXsXh.4.&.[ =.N N &.^.D.S V V 1.s.0.3.E.Q.U +.o.X.Y T J Y q.aXiXE z c n K T +.y.2XdX&XNX$XC.#XxXOXb.M.M.U.A.W.J.Q.2Xz.9XH.j.",
"i.k.iX3X<.1.A w.g.c.-._ ^.t.j.Q.^.@XK.K.@XpX0X@.+.#.X.Y P c X.qXAXuXr.c K J J Y r.$.tXaX$XC.C.A.B.+XBXcXc.oXA.'.d.].0Xl.t.Y.t.j.",
"q.r.2.S.<.Z N 3.b.oXV.:.*.V w.!.E.gX8.8.P.f.k.r.T | | J m K p.N.hXm.b.C c K L L @.u.4X(.pXnX@XQ.oXyXyXaX'.B.f.B.4.q.I.t.2XH.l.U.",
"3X#. .I.W.&.S [ K.c.:..XE.S aX3.A 4.1.3.a.=.d.I.P J J J Y c <XR.aXK.U.X.z c m | T <X<XuXdXuXBXpXpXuXpXxXxX&X{.J.{.k.i.y.y.r.z.z.",
"2XQ.G.j.w.8.s.@X7.a.;.c.T.L.].&.&.].AXv.M.C.+Xq.K L J J L T p.N.vXT.U.u.c h c L  .+.<XK.+XcX+X{.@XyXgXcXvXgXhXL.Q.j.R Y R 2.j.i.",
"I.E.s.6.q.!.oX-.*.7.&.e.S V V Z c.&XoXM..XB.0.i.U P L m L X.kXn.a.R.A.6.K c j m L J Y.(.oX+XR.nXNXgXpXhXdXm.D.d.3.4.6.i.i.w.h.h.",
"0.w.1.C X.Z C.B.8.4.w.A S 4.0.w.C.&X;XCXCXv.f.i.E F J m K X.j.E.B.E.K.G.I F K n x Y 3X!.m.s.w.n.'.$XC.A.A.Z w.W.K.A.G.S.D.D.T.0.",
"9.0.!.W.W.;.:.E.b.A R 2.i.L.F.!.T.%X.XCXNXxXd.s.@.K J L K K q.K.OXB.d.~.2.F P T Y U F.m.1.4.1.9.C.m.Z.U.h.*.OX[.[.{.W.~.H.q.!.K.",
"hXe.C.*XB.-X*XK.s.A R 3XJ.s.[.!.[.oX%X;X#XxXxXA.t.U K L G <XqXgX].A.{.Q.t.T T P U u.UXzXuXhXnXhXuXzX*XaXnXV.M.CXVX$Xn.A.6.A 3.c.",
"IXpXZ.C.M.oXpX+Xw.A ..k.s.a.m.s.c.c.c.`.>._.vXhXi.F P m U <XSXd.S.q.h.R 2.@.U W T W H.ZXKXLXZXgXPXDXZ.%.&X;X.XCXNXNXNXR.[ f.C.,.",
"XXXX X X X`.hXiX3.1.1.h.S.0.b.[ L.h.a.:.;.v.{.dXi.4 r 7 I H.m.Z t.D.4.i.y.E g y h 4 E ..8.v.E.VXZX*X[.%.;XNXnXdXW.s.w.i.X.Q.N.=.",
"cXK.V.XX:XXX$XyXK.T.F.9.@X@X9.[ w.h.8.M.c.a.0Xh.P > $   R Q.R X.6.Q.......I z   $ # U R e.3.&.d.c.F.mXXX'.nX$XxXgXdX4.X.F.S.=.E.",
"KXd.OXvXAXbXgX'.0XdX~.e.T.[.w.h.3XU.8.c.N.}.6.<.G 5 F a E G.2...[ ..5.5.1.R v @ - ~ z R _ &.Z =.a.m.DXXXJ.ZX*Xb.OXdXw.y.F.iXE.{.",
"K.OXs.0XvXxXVXSXqXI.S F.A.S.<.i.G.w.m.7.L.I.5.d.l 0 G G p.wXyXd...6.4.M.C.0.3Xl 2 ~ z 2.U.&.=.%.%.`.vX*.q.&X%XkXQ.q.4.iX3XZX{.8.",
"yXaXuXKXhXgXE.gXaX1.6.0X{.1.A w.6.A N.3.5.d.A.+XnXkXiXkX3XY.2Xp.I j.[.M.CXsX{.R.&X*X9.oXoX'.OXE.Z.-X'.b 3XBXpXm.S.D.F.aXl.G.6.U.",
"jXfXdX2XPXjXS.BX].T.nXuXk.yXq.D.{.7.c.m.f.K.b.+XSXqXS.~.U.2.E r.p.Y.'.M.B.].a.C.&X#XC.;.%X#X%X&XC.*XgX[ b.%XcXI.w.eXY.nX8.Y.L.eX",
"sXfXJ.yXdXfXjXnXcXvXDX+X8.f.S.SXpXB.7.'.pXa.N.}.0XH.j.G.wXS b i.I.K.gXBX&.f.T.7.v.+X+X8.+XB.v.OXPX(..XE.1.=.h.h.D.mXL.eX&XdXU.mX",
"W.dXqXuXwXeX9X].gXOX$X=XoX=.{.ZXbXN.7.[.v.c.v.sXuX~.Y.kX2X..X.3Xd.N.T.}.sX1.d.6._ R.!.[.m.9.E.NXIX.X#XBXuX*.5.F.3XdXyXL.hXW.h.Y."
};
